M48
; DRILL file {KiCad (6.0.1)} date Tue Jan  3 17:46:36 2023
; FORMAT={-:-/ absolute / metric / decimal}
; #@! TF.CreationDate,2023-01-03T17:46:36+01:00
; #@! TF.GenerationSoftware,Kicad,Pcbnew,(6.0.1)
; #@! TF.FileFunction,Plated,1,2,PTH
FMAT,2
METRIC
; #@! TA.AperFunction,Plated,PTH,ViaDrill
T1C0.800
; #@! TA.AperFunction,Plated,PTH,ComponentDrill
T2C0.800
; #@! TA.AperFunction,Plated,PTH,ComponentDrill
T3C1.000
; #@! TA.AperFunction,Plated,PTH,ComponentDrill
T4C1.200
; #@! TA.AperFunction,Plated,PTH,ComponentDrill
T5C1.520
; #@! TA.AperFunction,Plated,PTH,ComponentDrill
T6C1.800
; #@! TA.AperFunction,Plated,PTH,ComponentDrill
T7C3.200
%
G90
G05
T1
X23.25Y-110.0
X23.5Y-30.5
X24.5Y-67.0
X32.6Y-48.4
X35.5Y-61.951
X36.6Y-69.6
X37.4Y-55.6
X38.0Y-51.5
X41.0Y-35.5
X41.616Y-69.557
X44.8Y-64.8
X46.8Y-69.6
X51.25Y-114.0
X52.0Y-52.0
X52.0Y-58.75
X52.0Y-64.4
X52.0Y-69.6
X60.8Y-102.6
X64.0Y-98.0
X66.5Y-50.0
X66.5Y-66.5
X69.6Y-25.4
X74.0Y-50.0
X77.0Y-66.5
X85.8Y-67.0
X91.0Y-62.5
X91.8Y-51.4
X91.8Y-57.0
X92.0Y-43.0
X94.0Y-107.0
X99.4Y-38.8
X100.5Y-67.0
X102.4Y-49.2
X102.4Y-53.6
X103.4Y-81.6
X108.0Y-67.0
X108.5Y-94.0
X109.4Y-81.6
X109.4Y-105.0
X109.4Y-116.0
X114.0Y-55.4
X115.0Y-30.5
X115.8Y-81.6
X116.5Y-49.5
T2
X24.35Y-54.4
X24.35Y-56.94
X24.35Y-59.48
X24.35Y-62.02
X31.97Y-54.4
X31.97Y-56.94
X31.97Y-59.48
X31.97Y-62.02
X109.175Y-54.2
X109.175Y-56.74
X109.175Y-59.28
X109.175Y-61.82
X116.795Y-54.2
X116.795Y-56.74
X116.795Y-59.28
X116.795Y-61.82
T3
X26.0Y-98.88
X26.0Y-106.5
X28.54Y-98.88
X28.54Y-106.5
X31.08Y-98.88
X31.08Y-106.5
X33.62Y-98.88
X33.62Y-106.5
X36.16Y-98.88
X36.16Y-106.5
X38.7Y-98.88
X38.7Y-106.5
X41.24Y-98.88
X41.24Y-106.5
X43.78Y-98.88
X43.78Y-106.5
X46.32Y-98.88
X46.32Y-106.5
X48.86Y-98.88
X48.86Y-106.5
X54.65Y-42.0
X55.0Y-55.0
X59.0Y-60.46
X59.0Y-63.0
X67.95Y-98.222
X67.95Y-113.462
X70.0Y-42.0
X70.0Y-55.0
X70.49Y-98.222
X70.49Y-113.462
X73.03Y-98.222
X73.03Y-113.462
X75.57Y-98.222
X75.57Y-113.462
X78.11Y-98.222
X78.11Y-113.462
X80.65Y-98.222
X80.65Y-113.462
X82.0Y-60.46
X82.0Y-63.0
X83.19Y-98.222
X83.19Y-113.462
X85.73Y-98.222
X85.73Y-113.462
X86.0Y-42.0
X86.0Y-55.0
X88.27Y-98.222
X88.27Y-113.462
X90.81Y-98.222
X90.81Y-113.462
X93.35Y-98.222
X93.35Y-113.462
X95.89Y-98.222
X95.89Y-113.462
X98.43Y-98.222
X98.43Y-113.462
X100.97Y-98.222
X100.97Y-113.462
X103.51Y-98.222
X103.51Y-113.462
T4
X52.0Y-36.277
X88.0Y-36.277
T5
X24.0Y-77.0
X24.0Y-86.0
X24.92Y-43.0
X29.08Y-77.0
X29.08Y-86.0
X30.0Y-43.0
X34.16Y-77.0
X34.16Y-86.0
X35.08Y-43.0
X39.24Y-77.0
X39.24Y-86.0
X44.32Y-77.0
X44.32Y-86.0
X49.4Y-77.0
X49.4Y-86.0
X57.3Y-77.0
X57.3Y-86.0
X62.38Y-77.0
X62.38Y-86.0
X67.46Y-77.0
X67.46Y-86.0
X72.54Y-77.0
X72.54Y-86.0
X77.62Y-77.0
X77.62Y-86.0
X82.7Y-77.0
X82.7Y-86.0
X90.6Y-77.0
X90.6Y-86.0
X95.68Y-77.0
X95.68Y-86.0
X100.76Y-77.0
X100.76Y-86.0
X104.84Y-43.0
X105.84Y-77.0
X105.84Y-86.0
X109.92Y-43.0
X110.92Y-77.0
X110.92Y-86.0
X115.0Y-43.0
X116.0Y-77.0
X116.0Y-86.0
T6
X48.0Y-31.277
X52.0Y-31.277
X56.0Y-31.277
X84.0Y-31.277
X88.0Y-31.277
X92.0Y-31.277
T7
X24.0Y-24.0
X24.0Y-116.0
X116.0Y-24.0
X116.0Y-116.0
T0
M30
